# Tiled2Unity generated file. Do not modify by hand.
# Wavefront file for 'Sample-Map-1_mesh_0004.obj'

# Vertices (Count = 448)
v -4.16 -2.72 0
v -4.32 -2.72 0
v -4.32 -2.56 0
v -4.16 -2.56 0
v -0.96 -5.6 0
v -1.12 -5.6 0
v -1.12 -5.44 0
v -0.96 -5.44 0
v -0.96 -5.76 0
v -1.12 -5.76 0
v -1.12 -5.6 0
v -0.96 -5.6 0
v -1.12 -5.76 0
v -1.28 -5.76 0
v -1.28 -5.6 0
v -1.12 -5.6 0
v -6.88 -5.76 0
v -7.04 -5.76 0
v -7.04 -5.6 0
v -6.88 -5.6 0
v -7.04 -5.76 0
v -7.2 -5.76 0
v -7.2 -5.6 0
v -7.04 -5.6 0
v -0.96 -5.92 0
v -1.12 -5.92 0
v -1.12 -5.76 0
v -0.96 -5.76 0
v -1.12 -5.92 0
v -1.28 -5.92 0
v -1.28 -5.76 0
v -1.12 -5.76 0
v -1.28 -5.92 0
v -1.44 -5.92 0
v -1.44 -5.76 0
v -1.28 -5.76 0
v -3.52 -5.92 0
v -3.68 -5.92 0
v -3.68 -5.76 0
v -3.52 -5.76 0
v -3.68 -5.92 0
v -3.84 -5.92 0
v -3.84 -5.76 0
v -3.68 -5.76 0
v -3.84 -5.92 0
v -4 -5.92 0
v -4 -5.76 0
v -3.84 -5.76 0
v -4 -5.92 0
v -4.16 -5.92 0
v -4.16 -5.76 0
v -4 -5.76 0
v -4.16 -5.92 0
v -4.32 -5.92 0
v -4.32 -5.76 0
v -4.16 -5.76 0
v -6.56 -5.92 0
v -6.72 -5.92 0
v -6.72 -5.76 0
v -6.56 -5.76 0
v -6.72 -5.92 0
v -6.88 -5.92 0
v -6.88 -5.76 0
v -6.72 -5.76 0
v -6.88 -5.92 0
v -7.04 -5.92 0
v -7.04 -5.76 0
v -6.88 -5.76 0
v -7.04 -5.92 0
v -7.2 -5.92 0
v -7.2 -5.76 0
v -7.04 -5.76 0
v -0.96 -6.08 0
v -1.12 -6.08 0
v -1.12 -5.92 0
v -0.96 -5.92 0
v -1.12 -6.08 0
v -1.28 -6.08 0
v -1.28 -5.92 0
v -1.12 -5.92 0
v -1.28 -6.08 0
v -1.44 -6.08 0
v -1.44 -5.92 0
v -1.28 -5.92 0
v -1.44 -6.08 0
v -1.6 -6.08 0
v -1.6 -5.92 0
v -1.44 -5.92 0
v -1.6 -6.08 0
v -1.76 -6.08 0
v -1.76 -5.92 0
v -1.6 -5.92 0
v -3.52 -6.08 0
v -3.68 -6.08 0
v -3.68 -5.92 0
v -3.52 -5.92 0
v -3.68 -6.08 0
v -3.84 -6.08 0
v -3.84 -5.92 0
v -3.68 -5.92 0
v -3.84 -6.08 0
v -4 -6.08 0
v -4 -5.92 0
v -3.84 -5.92 0
v -4 -6.08 0
v -4.16 -6.08 0
v -4.16 -5.92 0
v -4 -5.92 0
v -4.16 -6.08 0
v -4.32 -6.08 0
v -4.32 -5.92 0
v -4.16 -5.92 0
v -6.4 -6.08 0
v -6.56 -6.08 0
v -6.56 -5.92 0
v -6.4 -5.92 0
v -6.56 -6.08 0
v -6.72 -6.08 0
v -6.72 -5.92 0
v -6.56 -5.92 0
v -6.72 -6.08 0
v -6.88 -6.08 0
v -6.88 -5.92 0
v -6.72 -5.92 0
v -6.88 -6.08 0
v -7.04 -6.08 0
v -7.04 -5.92 0
v -6.88 -5.92 0
v -7.04 -6.08 0
v -7.2 -6.08 0
v -7.2 -5.92 0
v -7.04 -5.92 0
v -1.44 -6.24 0
v -1.6 -6.24 0
v -1.6 -6.08 0
v -1.44 -6.08 0
v -1.6 -6.24 0
v -1.76 -6.24 0
v -1.76 -6.08 0
v -1.6 -6.08 0
v -3.52 -6.24 0
v -3.68 -6.24 0
v -3.68 -6.08 0
v -3.52 -6.08 0
v -3.68 -6.24 0
v -3.84 -6.24 0
v -3.84 -6.08 0
v -3.68 -6.08 0
v -3.84 -6.24 0
v -4 -6.24 0
v -4 -6.08 0
v -3.84 -6.08 0
v -4 -6.24 0
v -4.16 -6.24 0
v -4.16 -6.08 0
v -4 -6.08 0
v -4.16 -6.24 0
v -4.32 -6.24 0
v -4.32 -6.08 0
v -4.16 -6.08 0
v -6.08 -6.24 0
v -6.24 -6.24 0
v -6.24 -6.08 0
v -6.08 -6.08 0
v -6.24 -6.24 0
v -6.4 -6.24 0
v -6.4 -6.08 0
v -6.24 -6.08 0
v -6.4 -6.24 0
v -6.56 -6.24 0
v -6.56 -6.08 0
v -6.4 -6.08 0
v -6.56 -6.24 0
v -6.72 -6.24 0
v -6.72 -6.08 0
v -6.56 -6.08 0
v -1.44 -6.4 0
v -1.6 -6.4 0
v -1.6 -6.24 0
v -1.44 -6.24 0
v -1.6 -6.4 0
v -1.76 -6.4 0
v -1.76 -6.24 0
v -1.6 -6.24 0
v -1.76 -6.4 0
v -1.92 -6.4 0
v -1.92 -6.24 0
v -1.76 -6.24 0
v -1.92 -6.4 0
v -2.08 -6.4 0
v -2.08 -6.24 0
v -1.92 -6.24 0
v -3.52 -6.4 0
v -3.68 -6.4 0
v -3.68 -6.24 0
v -3.52 -6.24 0
v -3.68 -6.4 0
v -3.84 -6.4 0
v -3.84 -6.24 0
v -3.68 -6.24 0
v -3.84 -6.4 0
v -4 -6.4 0
v -4 -6.24 0
v -3.84 -6.24 0
v -4 -6.4 0
v -4.16 -6.4 0
v -4.16 -6.24 0
v -4 -6.24 0
v -4.16 -6.4 0
v -4.32 -6.4 0
v -4.32 -6.24 0
v -4.16 -6.24 0
v -5.92 -6.4 0
v -6.08 -6.4 0
v -6.08 -6.24 0
v -5.92 -6.24 0
v -6.08 -6.4 0
v -6.24 -6.4 0
v -6.24 -6.24 0
v -6.08 -6.24 0
v -6.24 -6.4 0
v -6.4 -6.4 0
v -6.4 -6.24 0
v -6.24 -6.24 0
v -6.4 -6.4 0
v -6.56 -6.4 0
v -6.56 -6.24 0
v -6.4 -6.24 0
v -6.56 -6.4 0
v -6.72 -6.4 0
v -6.72 -6.24 0
v -6.56 -6.24 0
v -1.44 -6.56 0
v -1.6 -6.56 0
v -1.6 -6.4 0
v -1.44 -6.4 0
v -1.6 -6.56 0
v -1.76 -6.56 0
v -1.76 -6.4 0
v -1.6 -6.4 0
v -1.76 -6.56 0
v -1.92 -6.56 0
v -1.92 -6.4 0
v -1.76 -6.4 0
v -1.92 -6.56 0
v -2.08 -6.56 0
v -2.08 -6.4 0
v -1.92 -6.4 0
v -2.08 -6.56 0
v -2.24 -6.56 0
v -2.24 -6.4 0
v -2.08 -6.4 0
v -2.24 -6.56 0
v -2.4 -6.56 0
v -2.4 -6.4 0
v -2.24 -6.4 0
v -3.52 -6.56 0
v -3.68 -6.56 0
v -3.68 -6.4 0
v -3.52 -6.4 0
v -3.68 -6.56 0
v -3.84 -6.56 0
v -3.84 -6.4 0
v -3.68 -6.4 0
v -3.84 -6.56 0
v -4 -6.56 0
v -4 -6.4 0
v -3.84 -6.4 0
v -4 -6.56 0
v -4.16 -6.56 0
v -4.16 -6.4 0
v -4 -6.4 0
v -4.16 -6.56 0
v -4.32 -6.56 0
v -4.32 -6.4 0
v -4.16 -6.4 0
v -5.6 -6.56 0
v -5.76 -6.56 0
v -5.76 -6.4 0
v -5.6 -6.4 0
v -5.76 -6.56 0
v -5.92 -6.56 0
v -5.92 -6.4 0
v -5.76 -6.4 0
v -5.92 -6.56 0
v -6.08 -6.56 0
v -6.08 -6.4 0
v -5.92 -6.4 0
v -6.08 -6.56 0
v -6.24 -6.56 0
v -6.24 -6.4 0
v -6.08 -6.4 0
v -6.24 -6.56 0
v -6.4 -6.56 0
v -6.4 -6.4 0
v -6.24 -6.4 0
v -6.4 -6.56 0
v -6.56 -6.56 0
v -6.56 -6.4 0
v -6.4 -6.4 0
v -6.56 -6.56 0
v -6.72 -6.56 0
v -6.72 -6.4 0
v -6.56 -6.4 0
v -1.92 -6.72 0
v -2.08 -6.72 0
v -2.08 -6.56 0
v -1.92 -6.56 0
v -2.08 -6.72 0
v -2.24 -6.72 0
v -2.24 -6.56 0
v -2.08 -6.56 0
v -2.24 -6.72 0
v -2.4 -6.72 0
v -2.4 -6.56 0
v -2.24 -6.56 0
v -2.4 -6.72 0
v -2.56 -6.72 0
v -2.56 -6.56 0
v -2.4 -6.56 0
v -5.6 -6.72 0
v -5.76 -6.72 0
v -5.76 -6.56 0
v -5.6 -6.56 0
v -5.76 -6.72 0
v -5.92 -6.72 0
v -5.92 -6.56 0
v -5.76 -6.56 0
v -5.92 -6.72 0
v -6.08 -6.72 0
v -6.08 -6.56 0
v -5.92 -6.56 0
v -6.08 -6.72 0
v -6.24 -6.72 0
v -6.24 -6.56 0
v -6.08 -6.56 0
v -1.92 -6.88 0
v -2.08 -6.88 0
v -2.08 -6.72 0
v -1.92 -6.72 0
v -2.08 -6.88 0
v -2.24 -6.88 0
v -2.24 -6.72 0
v -2.08 -6.72 0
v -2.24 -6.88 0
v -2.4 -6.88 0
v -2.4 -6.72 0
v -2.24 -6.72 0
v -2.4 -6.88 0
v -2.56 -6.88 0
v -2.56 -6.72 0
v -2.4 -6.72 0
v -2.56 -6.88 0
v -2.72 -6.88 0
v -2.72 -6.72 0
v -2.56 -6.72 0
v -2.72 -6.88 0
v -2.88 -6.88 0
v -2.88 -6.72 0
v -2.72 -6.72 0
v -5.28 -6.88 0
v -5.44 -6.88 0
v -5.44 -6.72 0
v -5.28 -6.72 0
v -5.44 -6.88 0
v -5.6 -6.88 0
v -5.6 -6.72 0
v -5.44 -6.72 0
v -5.6 -6.88 0
v -5.76 -6.88 0
v -5.76 -6.72 0
v -5.6 -6.72 0
v -5.76 -6.88 0
v -5.92 -6.88 0
v -5.92 -6.72 0
v -5.76 -6.72 0
v -5.92 -6.88 0
v -6.08 -6.88 0
v -6.08 -6.72 0
v -5.92 -6.72 0
v -6.08 -6.88 0
v -6.24 -6.88 0
v -6.24 -6.72 0
v -6.08 -6.72 0
v -1.92 -7.04 0
v -2.08 -7.04 0
v -2.08 -6.88 0
v -1.92 -6.88 0
v -2.08 -7.04 0
v -2.24 -7.04 0
v -2.24 -6.88 0
v -2.08 -6.88 0
v -2.24 -7.04 0
v -2.4 -7.04 0
v -2.4 -6.88 0
v -2.24 -6.88 0
v -2.4 -7.04 0
v -2.56 -7.04 0
v -2.56 -6.88 0
v -2.4 -6.88 0
v -2.56 -7.04 0
v -2.72 -7.04 0
v -2.72 -6.88 0
v -2.56 -6.88 0
v -2.72 -7.04 0
v -2.88 -7.04 0
v -2.88 -6.88 0
v -2.72 -6.88 0
v -2.88 -7.04 0
v -3.04 -7.04 0
v -3.04 -6.88 0
v -2.88 -6.88 0
v -3.04 -7.04 0
v -3.2 -7.04 0
v -3.2 -6.88 0
v -3.04 -6.88 0
v -4.96 -7.04 0
v -5.12 -7.04 0
v -5.12 -6.88 0
v -4.96 -6.88 0
v -5.12 -7.04 0
v -5.28 -7.04 0
v -5.28 -6.88 0
v -5.12 -6.88 0
v -5.28 -7.04 0
v -5.44 -7.04 0
v -5.44 -6.88 0
v -5.28 -6.88 0
v -5.44 -7.04 0
v -5.6 -7.04 0
v -5.6 -6.88 0
v -5.44 -6.88 0
v -5.6 -7.04 0
v -5.76 -7.04 0
v -5.76 -6.88 0
v -5.6 -6.88 0
v -5.76 -7.04 0
v -5.92 -7.04 0
v -5.92 -6.88 0
v -5.76 -6.88 0
v -5.92 -7.04 0
v -6.08 -7.04 0
v -6.08 -6.88 0
v -5.92 -6.88 0
v -6.08 -7.04 0
v -6.24 -7.04 0
v -6.24 -6.88 0
v -6.08 -6.88 0

# Texture cooridinates (Count = 44)
vt 0.4680851 0.9809448
vt 0.4787234 0.9809448
vt 0.4787234 0.9872965
vt 0.4680851 0.9872965
vt 0.06382979 0.9936483
vt 0.07446808 0.9936483
vt 0.07446808 1
vt 0.06382979 1
vt 0.5 0.9491862
vt 0.5106383 0.9491862
vt 0.5106383 0.9555379
vt 0.5 0.9555379
vt 0.5212766 0.9491862
vt 0.5212766 0.9555379
vt 0.5319149 0.9491862
vt 0.5319149 0.9555379
vt 0.5425532 0.9491862
vt 0.5425532 0.9555379
vt 0.5531915 0.9491862
vt 0.5531915 0.9555379
vt 0.5 0.9428344
vt 0.5106383 0.9428344
vt 0.5212766 0.9428344
vt 0.5319149 0.9428344
vt 0.5425532 0.9428344
vt 0.5531915 0.9428344
vt 0.5 0.9364827
vt 0.5106383 0.9364827
vt 0.5212766 0.9364827
vt 0.5319149 0.9364827
vt 0.5425532 0.9364827
vt 0.5531915 0.9364827
vt 0.5 0.930131
vt 0.5106383 0.930131
vt 0.5212766 0.930131
vt 0.5319149 0.930131
vt 0.5425532 0.930131
vt 0.5531915 0.930131
vt 0.5 0.9237792
vt 0.5106383 0.9237792
vt 0.5212766 0.9237792
vt 0.5319149 0.9237792
vt 0.5425532 0.9237792
vt 0.5531915 0.9237792

# Normal
vn 0 0 -1

# Mesh description
g Sample-Map-1_mesh_0004

# Faces
f 1/1/1 2/2/1 3/3/1 4/4/1
f 5/5/1 6/6/1 7/7/1 8/8/1
f 9/5/1 10/6/1 11/7/1 12/8/1
f 13/5/1 14/6/1 15/7/1 16/8/1
f 17/5/1 18/6/1 19/7/1 20/8/1
f 21/5/1 22/6/1 23/7/1 24/8/1
f 25/5/1 26/6/1 27/7/1 28/8/1
f 29/5/1 30/6/1 31/7/1 32/8/1
f 33/5/1 34/6/1 35/7/1 36/8/1
f 37/9/1 38/10/1 39/11/1 40/12/1
f 41/10/1 42/13/1 43/14/1 44/11/1
f 45/13/1 46/15/1 47/16/1 48/14/1
f 49/15/1 50/17/1 51/18/1 52/16/1
f 53/17/1 54/19/1 55/20/1 56/18/1
f 57/5/1 58/6/1 59/7/1 60/8/1
f 61/5/1 62/6/1 63/7/1 64/8/1
f 65/5/1 66/6/1 67/7/1 68/8/1
f 69/5/1 70/6/1 71/7/1 72/8/1
f 73/5/1 74/6/1 75/7/1 76/8/1
f 77/5/1 78/6/1 79/7/1 80/8/1
f 81/5/1 82/6/1 83/7/1 84/8/1
f 85/5/1 86/6/1 87/7/1 88/8/1
f 89/5/1 90/6/1 91/7/1 92/8/1
f 93/21/1 94/22/1 95/10/1 96/9/1
f 97/22/1 98/23/1 99/13/1 100/10/1
f 101/23/1 102/24/1 103/15/1 104/13/1
f 105/24/1 106/25/1 107/17/1 108/15/1
f 109/25/1 110/26/1 111/19/1 112/17/1
f 113/5/1 114/6/1 115/7/1 116/8/1
f 117/5/1 118/6/1 119/7/1 120/8/1
f 121/5/1 122/6/1 123/7/1 124/8/1
f 125/5/1 126/6/1 127/7/1 128/8/1
f 129/5/1 130/6/1 131/7/1 132/8/1
f 133/5/1 134/6/1 135/7/1 136/8/1
f 137/5/1 138/6/1 139/7/1 140/8/1
f 141/27/1 142/28/1 143/22/1 144/21/1
f 145/28/1 146/29/1 147/23/1 148/22/1
f 149/29/1 150/30/1 151/24/1 152/23/1
f 153/30/1 154/31/1 155/25/1 156/24/1
f 157/31/1 158/32/1 159/26/1 160/25/1
f 161/5/1 162/6/1 163/7/1 164/8/1
f 165/5/1 166/6/1 167/7/1 168/8/1
f 169/5/1 170/6/1 171/7/1 172/8/1
f 173/5/1 174/6/1 175/7/1 176/8/1
f 177/5/1 178/6/1 179/7/1 180/8/1
f 181/5/1 182/6/1 183/7/1 184/8/1
f 185/5/1 186/6/1 187/7/1 188/8/1
f 189/5/1 190/6/1 191/7/1 192/8/1
f 193/33/1 194/34/1 195/28/1 196/27/1
f 197/34/1 198/35/1 199/29/1 200/28/1
f 201/35/1 202/36/1 203/30/1 204/29/1
f 205/36/1 206/37/1 207/31/1 208/30/1
f 209/37/1 210/38/1 211/32/1 212/31/1
f 213/5/1 214/6/1 215/7/1 216/8/1
f 217/5/1 218/6/1 219/7/1 220/8/1
f 221/5/1 222/6/1 223/7/1 224/8/1
f 225/5/1 226/6/1 227/7/1 228/8/1
f 229/5/1 230/6/1 231/7/1 232/8/1
f 233/5/1 234/6/1 235/7/1 236/8/1
f 237/5/1 238/6/1 239/7/1 240/8/1
f 241/5/1 242/6/1 243/7/1 244/8/1
f 245/5/1 246/6/1 247/7/1 248/8/1
f 249/5/1 250/6/1 251/7/1 252/8/1
f 253/5/1 254/6/1 255/7/1 256/8/1
f 257/39/1 258/40/1 259/34/1 260/33/1
f 261/40/1 262/41/1 263/35/1 264/34/1
f 265/41/1 266/42/1 267/36/1 268/35/1
f 269/42/1 270/43/1 271/37/1 272/36/1
f 273/43/1 274/44/1 275/38/1 276/37/1
f 277/5/1 278/6/1 279/7/1 280/8/1
f 281/5/1 282/6/1 283/7/1 284/8/1
f 285/5/1 286/6/1 287/7/1 288/8/1
f 289/5/1 290/6/1 291/7/1 292/8/1
f 293/5/1 294/6/1 295/7/1 296/8/1
f 297/5/1 298/6/1 299/7/1 300/8/1
f 301/5/1 302/6/1 303/7/1 304/8/1
f 305/5/1 306/6/1 307/7/1 308/8/1
f 309/5/1 310/6/1 311/7/1 312/8/1
f 313/5/1 314/6/1 315/7/1 316/8/1
f 317/5/1 318/6/1 319/7/1 320/8/1
f 321/5/1 322/6/1 323/7/1 324/8/1
f 325/5/1 326/6/1 327/7/1 328/8/1
f 329/5/1 330/6/1 331/7/1 332/8/1
f 333/5/1 334/6/1 335/7/1 336/8/1
f 337/5/1 338/6/1 339/7/1 340/8/1
f 341/5/1 342/6/1 343/7/1 344/8/1
f 345/5/1 346/6/1 347/7/1 348/8/1
f 349/5/1 350/6/1 351/7/1 352/8/1
f 353/5/1 354/6/1 355/7/1 356/8/1
f 357/5/1 358/6/1 359/7/1 360/8/1
f 361/5/1 362/6/1 363/7/1 364/8/1
f 365/5/1 366/6/1 367/7/1 368/8/1
f 369/5/1 370/6/1 371/7/1 372/8/1
f 373/5/1 374/6/1 375/7/1 376/8/1
f 377/5/1 378/6/1 379/7/1 380/8/1
f 381/5/1 382/6/1 383/7/1 384/8/1
f 385/5/1 386/6/1 387/7/1 388/8/1
f 389/5/1 390/6/1 391/7/1 392/8/1
f 393/5/1 394/6/1 395/7/1 396/8/1
f 397/5/1 398/6/1 399/7/1 400/8/1
f 401/5/1 402/6/1 403/7/1 404/8/1
f 405/5/1 406/6/1 407/7/1 408/8/1
f 409/5/1 410/6/1 411/7/1 412/8/1
f 413/5/1 414/6/1 415/7/1 416/8/1
f 417/5/1 418/6/1 419/7/1 420/8/1
f 421/5/1 422/6/1 423/7/1 424/8/1
f 425/5/1 426/6/1 427/7/1 428/8/1
f 429/5/1 430/6/1 431/7/1 432/8/1
f 433/5/1 434/6/1 435/7/1 436/8/1
f 437/5/1 438/6/1 439/7/1 440/8/1
f 441/5/1 442/6/1 443/7/1 444/8/1
f 445/5/1 446/6/1 447/7/1 448/8/1

